Coordinates
version=1
nRows=16
nColumns=36
inDegrees=yes

Units are S.I. units (second, meters, Newtons, ...)
If the header above contains a line with 'inDegrees', this indicates whether rotational values are in degrees (yes) or radians (no).

endheader
time	pelvis_tilt	pelvis_list	pelvis_rotation	pelvis_tx	pelvis_ty	pelvis_tz	hip_flexion_r	hip_adduction_r	hip_rotation_r	knee_angle_r	knee_angle_r_beta	ankle_angle_r	subtalar_angle_r	mtp_angle_r	hip_flexion_l	hip_adduction_l	hip_rotation_l	knee_angle_l	knee_angle_l_beta	ankle_angle_l	subtalar_angle_l	mtp_angle_l	lumbar_extension	lumbar_bending	lumbar_rotation	arm_flex_r	arm_add_r	arm_rot_r	elbow_flex_r	pro_sup_r	arm_flex_l	arm_add_l	arm_rot_l	elbow_flex_l	pro_sup_l
      3.68333330	     -7.10623001	      2.43356721	    -39.91054316	      0.97943288	      0.92474799	      0.31033491	      7.30316875	      4.24196367	    -28.64360908	      1.72635541	      0.03013059	      7.13847310	     16.37042884	     -7.49999987	      6.93090363	     -2.56240100	     -8.48571904	      3.20244135	      0.05589315	     12.36463003	     11.21955424	     -7.49999987	      3.11722664	     -5.62162133	      5.74425110	     93.37519906	    -23.26053107	    130.82924064	      2.94283736	     32.26332066	      9.26287048	     -7.96183019	     61.72842352	     11.59318539	     49.53705376
      3.70000000	     -7.16112113	      2.46720058	    -40.02558447	      0.97860411	      0.92667915	      0.31184207	      7.40303441	      4.30913083	    -29.04220146	      1.81323699	      0.03164696	      7.01537730	     16.47562416	     -7.49999987	      7.16675139	     -2.69536346	     -8.54876809	      3.46747717	      0.06051889	     12.41847171	     11.17642990	     -7.49999987	      3.21652659	     -5.65399154	      5.27793573	     92.96970156	    -21.69145739	    123.52586999	      2.89116199	     40.29843825	      8.55626179	     -8.34585336	     56.92592768	     12.29144204	     53.74044084
      3.71666670	     -7.17926823	      2.41987727	    -40.33569437	      0.97942598	      0.92114090	      0.31101921	      7.48019819	      4.34950456	    -29.14806023	      2.05296858	      0.03583106	      7.11232231	     16.16439396	     -7.49999987	      7.10919841	     -2.78374655	     -8.71937877	      3.55883306	      0.06211335	     12.74332926	     10.99612228	     -7.49999987	      3.37765641	     -5.42081306	      5.46439208	     93.29957695	    -20.63151135	    123.69868772	      3.21731661	     40.16391269	      8.51030788	     -8.36794413	     57.08421157	     12.21208881	     53.71806244
      3.73333330	     -7.22948125	      2.46175498	    -40.41079235	      0.97825254	      0.92534202	      0.31081749	      7.57729392	      4.39422265	    -28.71505993	      2.02939756	      0.03541967	      7.12181102	     15.43480759	     -7.49999987	      7.31620289	     -2.86109558	     -8.75451888	      3.71043469	      0.06475930	     12.94042742	     10.97959301	     -7.49999987	      3.50798218	     -5.33456216	      5.07190924	     93.44087315	    -19.34573705	    127.65604244	      3.61692074	     36.97441592	      8.41418550	     -8.49850648	     59.01541330	     11.78572422	     52.61496248
      3.75000000	     -7.31272878	      2.49730609	    -40.28509301	      0.97636979	      0.92825485	      0.31227352	      7.67450457	      4.50491577	    -28.84048002	      1.90666362	      0.03327756	      7.07210248	     15.68130344	     -7.49999987	      7.49063269	     -2.95889635	     -8.51841487	      3.69669664	      0.06451953	     12.73870755	     10.89826239	     -7.49999987	      3.60144036	     -5.37686660	      4.88449901	     93.24286126	    -18.12806992	    127.50638594	      3.86216833	     32.52444275	      8.37826715	     -8.84343261	     59.37690369	     12.01901061	     49.95547570
      3.76666670	     -7.21165007	      2.53582502	    -40.15426963	      0.98172914	      0.92824570	      0.31027830	      7.54953658	      4.35409710	    -28.70254296	      1.76124859	      0.03073959	      6.87726006	     15.65041681	     -7.49999987	      7.52987182	     -2.86556880	     -8.37260370	      3.58203009	      0.06251822	     12.50182859	     10.94276110	     -7.49999987	      3.50575363	     -5.50495339	      4.80969840	     93.10302377	    -17.28116328	    127.46873282	      4.03120894	     32.53494839	      8.28905882	     -8.63967935	     59.47558751	     11.85997307	     49.96685703
      3.78333330	     -7.09256008	      2.51025343	    -39.96139386	      0.98533472	      0.92497210	      0.30744577	      7.41348351	      4.13727510	    -28.36816537	      1.67642970	      0.02925922	      6.83744583	     15.70502411	     -7.49999987	      7.50085055	     -2.69680501	     -8.20036591	      3.55453011	      0.06203825	     12.40511255	     10.83691754	     -7.49999987	      3.35741976	     -5.36109426	      4.63243953	     93.32086533	    -16.34167419	    127.33676955	      4.14920157	     32.52265188	      8.16149487	     -8.15789522	     59.62960450	     11.47253018	     49.95629038
      3.80000000	     -6.93708688	      2.59194403	    -39.98263751	      0.98157450	      0.92890060	      0.30898289	      7.36308602	      3.88069038	    -28.51081782	      1.60635849	      0.02803624	      6.52803031	     15.65205832	     -7.49999987	      7.45045990	     -2.47901061	     -8.21892567	      3.43497326	      0.05995159	     12.03424183	     10.77554252	     -7.49999987	      3.21154645	     -5.48831413	      4.83965003	     93.38129129	    -15.58305775	    127.23060019	      4.27616766	     32.50573237	      8.37217334	     -8.02851519	     59.73986571	     11.26508115	     49.94281913
      3.81666670	     -6.76166863	      2.63469891	    -40.09676500	      0.98044235	      0.93010375	      0.30965910	      7.31875633	      3.75225188	    -28.92879705	      1.58060219	      0.02758671	      6.46544164	     15.98253004	     -7.49999987	      7.38616984	     -2.32106011	     -8.19395140	      3.43355576	      0.05992685	     11.87924656	     10.68586338	     -7.49999987	      3.06958160	     -5.53739482	      4.75282945	     93.24825107	    -14.29217250	    123.68239502	      4.35715898	     37.58203879	      8.54633651	     -8.09332727	     61.19582837	     10.79671557	     51.94270384
      3.83333330	     -6.62848018	      2.58965416	    -40.14842527	      0.98268538	      0.92743026	      0.31087546	      7.17324529	      3.67662213	    -29.05504999	      1.68781526	      0.02945793	      6.42398103	     16.14212822	     -7.49999987	      7.15689076	     -2.19658734	     -8.01889507	      3.50808532	      0.06122764	     11.80723355	     10.33689898	     -7.49999987	      2.98756216	     -5.49820169	      4.58802672	     93.22176306	    -13.06074548	    119.87139332	      4.63272299	     43.93313983	      8.35007510	     -8.15393389	     59.55675154	     10.74880187	     53.91899200
      3.85000000	     -6.54996775	      2.54742219	    -40.35719420	      0.98350581	      0.92738764	      0.31184870	      7.05501414	      3.62784283	    -28.86001610	      1.89342148	      0.03304644	      6.60881676	     15.77339651	     -7.49999987	      6.96188453	     -2.16045734	     -8.49015284	      3.68968770	      0.06439720	     12.10684229	     10.49679635	     -7.49999987	      3.11110005	     -5.47991340	      4.83146761	     92.98720847	    -11.98112741	    124.45958189	      4.76369597	     33.15780828	      8.46035901	     -8.23980463	     63.61618506	     10.35002722	     47.29903847
      3.86666670	     -6.52476829	      2.51303932	    -40.34383418	      0.98196639	      0.92368479	      0.31251211	      6.99880843	      3.56501038	    -28.91138336	      2.09913167	      0.03663676	      6.94706527	     15.65030445	     -7.49999987	      6.91083400	     -2.18183673	     -8.55033502	      3.93269962	      0.06863856	     12.50447520	     10.36985041	     -7.49999987	      3.20240649	     -5.44488244	      4.87012625	     93.04084962	    -10.83707851	    123.94312215	      4.99065908	     33.16529402	      8.55733645	     -8.59137635	     64.23849332	     10.40264634	     46.97664539
      3.88333330	     -6.50794457	      2.57578906	    -40.49416622	      0.97849540	      0.92611649	      0.31389381	      7.06290999	      3.56819025	    -28.85049396	      2.26767927	      0.03957847	      7.12579757	     15.58625798	     -7.49999987	      6.95712477	     -2.25059606	     -8.75972842	      4.02652841	      0.07027618	     12.61625016	     10.41936444	     -7.49999987	      3.22911382	     -5.55875839	      5.17494910	     93.12037357	     -9.74451562	    121.77443164	      5.09663678	     37.84985125	      8.65337548	     -8.98644262	     62.97314923	     10.68563582	     49.44811687
      3.90000000	     -6.62554757	      2.59656351	    -40.49745478	      0.97891654	      0.92227381	      0.31475437	      7.33441107	      3.74036469	    -28.95255619	      2.45797254	      0.04289971	      7.28428577	     15.61116525	     -7.49999987	      7.05884876	     -2.40519776	     -8.76181926	      4.16984283	      0.07277749	     12.87874410	     10.42570083	     -7.49999987	      3.30246111	     -5.63551185	      5.70520106	     93.39142166	     -9.00801978	    124.21009911	      5.22086183	     33.29674077	      9.02060688	     -9.18415197	     64.65105323	     10.57696545	     47.34605588
      3.91666670	     -6.68266082	      2.63793635	    -40.55403785	      0.97696817	      0.92549921	      0.31426617	      7.53073161	      3.87571652	    -29.09614645	      2.51184168	      0.04383991	      7.42470315	     16.07567453	     -7.49999987	      7.21448971	     -2.54744995	     -9.01630878	      4.26736964	      0.07447965	     13.00643755	     10.45520145	     -7.49999987	      3.23392596	     -5.77407884	      6.29450954	     93.54766364	     -8.23260320	    124.41368511	      5.17527405	     33.36068305	      9.47449390	     -9.35384889	     65.16255780	     10.56336968	     48.19531543
      3.93333330	     -6.81255980	      2.69109963	    -40.58447647	      0.97317410	      0.92459295	      0.31492137	      7.91245488	      4.07872439	    -29.50950636	      2.60718460	      0.04550396	      7.33056539	     16.12253494	     -7.49999987	      7.40502680	     -2.69728043	     -9.17636906	      4.26914100	      0.07451057	     13.04328813	     10.46521035	     -7.49999987	      3.13446131	     -5.84412563	      6.85976964	     93.88474358	     -7.37721243	    122.51153518	      4.93516529	     39.82221096	      9.86528808	     -9.65837937	     62.98377632	     10.99959130	     51.51817344
